# xmcd CD database file
#
# Track frame offsets:
#	150
#	17517
#	41316
#	62412
#	80214
#	104163
#	122786
#	145082
#	169042
#	194869
#	212945
#	250760
#
# Disc length: 3869 seconds
#
# Revision: 0
# Processed by: cddbd v1.4PL0 Copyright (c) Steve Scherf et al.
# Submitted via: Feurio! 1.65 - http://www.feurio.com
#
DISCID=ae0f1b0c
DTITLE=Mike Dugan and The Blues Mission - All My Blues
DYEAR=1997
DGENRE=blues
TTITLE0=Turn It On And Light It Up
TTITLE1=Can't Get Off The Ground
TTITLE2=Blues Machine
TTITLE3=Freezer Burn
TTITLE4=Lyin' In Bed
TTITLE5=Life By The Drop (For SRV)
TTITLE6=Gamblin' With My Heart
TTITLE7=Nothin' But The Blues
TTITLE8=Another Night Without You
TTITLE9=Vintage (with Shirley Lewis)
TTITLE10=All My Blues
TTITLE11=Data Track
EXTD=
EXTT0=w. Bobby Radcliff
EXTT1=
EXTT2=
EXTT3=
EXTT4=
EXTT5=
EXTT6=
EXTT7=
EXTT8=
EXTT9=
EXTT10=
EXTT11=
PLAYORDER=
